<?xml version="1.0" encoding="UTF-8" standalone="no"?>
<!DOCTYPE svg PUBLIC "-//W3C//DTD SVG 1.1//EN"
 "http://www.w3.org/Graphics/SVG/1.1/DTD/svg11.dtd">
<!-- Generated by graphviz version 2.38.0 (20140413.2041)
 -->
<!-- Title: %3 Pages: 1 -->
<svg width="1118pt" height="404pt"
 viewBox="0.00 0.00 1117.88 404.00" xmlns="http://www.w3.org/2000/svg" xmlns:xlink="http://www.w3.org/1999/xlink">
<g id="graph0" class="graph" transform="scale(1 1) rotate(0) translate(4 400)">
<title>%3</title>
<polygon fill="white" stroke="none" points="-4,4 -4,-400 1113.88,-400 1113.88,4 -4,4"/>
<!-- fetch -->
<g id="node1" class="node"><title>fetch</title>
<ellipse fill="none" stroke="black" cx="624.145" cy="-378" rx="34.394" ry="18"/>
<text text-anchor="middle" x="624.145" y="-374.3" font-family="Times,serif" font-size="14.00">fetch</text>
</g>
<!-- fetch&#45;&gt;fetch -->
<g id="edge1" class="edge"><title>fetch&#45;&gt;fetch</title>
<path fill="none" stroke="black" d="M648.694,-390.708C663.104,-393.416 676.592,-389.18 676.592,-378 676.592,-369.528 668.846,-365.043 658.823,-364.546"/>
<polygon fill="black" stroke="black" points="658.41,-361.067 648.694,-365.292 658.924,-368.048 658.41,-361.067"/>
</g>
<!-- memW1St -->
<g id="node2" class="node"><title>memW1St</title>
<ellipse fill="none" stroke="black" cx="59.1448" cy="-306" rx="59.2899" ry="18"/>
<text text-anchor="middle" x="59.1448" y="-302.3" font-family="Times,serif" font-size="14.00">memW1St</text>
</g>
<!-- fetch&#45;&gt;memW1St -->
<g id="edge2" class="edge"><title>fetch&#45;&gt;memW1St</title>
<path fill="none" stroke="black" d="M590.414,-374.085C512.592,-367.174 314.557,-348.515 150.145,-324 139.435,-322.403 128.059,-320.469 117.11,-318.486"/>
<polygon fill="black" stroke="black" points="117.674,-315.031 107.205,-316.66 116.405,-321.915 117.674,-315.031"/>
</g>
<!-- memR1St -->
<g id="node3" class="node"><title>memR1St</title>
<ellipse fill="none" stroke="black" cx="248.145" cy="-306" rx="55.7903" ry="18"/>
<text text-anchor="middle" x="248.145" y="-302.3" font-family="Times,serif" font-size="14.00">memR1St</text>
</g>
<!-- fetch&#45;&gt;memR1St -->
<g id="edge3" class="edge"><title>fetch&#45;&gt;memR1St</title>
<path fill="none" stroke="black" d="M581.945,-369.682C524.957,-359.727 420.263,-341.184 331.145,-324 322.235,-322.282 312.8,-320.405 303.61,-318.545"/>
<polygon fill="black" stroke="black" points="581.563,-373.168 592.016,-371.438 582.766,-366.272 581.563,-373.168"/>
<polygon fill="black" stroke="black" points="304.268,-315.107 293.771,-316.542 302.872,-321.967 304.268,-315.107"/>
</g>
<!-- regR1St -->
<g id="node4" class="node"><title>regR1St</title>
<ellipse fill="none" stroke="black" cx="389.145" cy="-306" rx="48.9926" ry="18"/>
<text text-anchor="middle" x="389.145" y="-302.3" font-family="Times,serif" font-size="14.00">regR1St</text>
</g>
<!-- fetch&#45;&gt;regR1St -->
<g id="edge4" class="edge"><title>fetch&#45;&gt;regR1St</title>
<path fill="none" stroke="black" d="M585.024,-365.347C543.904,-353.098 479.24,-333.837 435.566,-320.827"/>
<polygon fill="black" stroke="black" points="584.274,-368.776 594.857,-368.276 586.272,-362.067 584.274,-368.776"/>
<polygon fill="black" stroke="black" points="436.346,-317.408 425.763,-317.907 434.347,-324.117 436.346,-317.408"/>
</g>
<!-- regW1St -->
<g id="node5" class="node"><title>regW1St</title>
<ellipse fill="none" stroke="black" cx="526.145" cy="-306" rx="51.9908" ry="18"/>
<text text-anchor="middle" x="526.145" y="-302.3" font-family="Times,serif" font-size="14.00">regW1St</text>
</g>
<!-- fetch&#45;&gt;regW1St -->
<g id="edge5" class="edge"><title>fetch&#45;&gt;regW1St</title>
<path fill="none" stroke="black" d="M595.784,-356.742C583.416,-347.908 568.901,-337.54 556.333,-328.563"/>
<polygon fill="black" stroke="black" points="594.141,-359.87 604.313,-362.834 598.21,-354.174 594.141,-359.87"/>
<polygon fill="black" stroke="black" points="558.165,-325.57 547.993,-322.606 554.096,-331.266 558.165,-325.57"/>
</g>
<!-- step -->
<g id="node6" class="node"><title>step</title>
<ellipse fill="none" stroke="black" cx="721.145" cy="-306" rx="30.5947" ry="18"/>
<text text-anchor="middle" x="721.145" y="-302.3" font-family="Times,serif" font-size="14.00">step</text>
</g>
<!-- fetch&#45;&gt;step -->
<g id="edge6" class="edge"><title>fetch&#45;&gt;step</title>
<path fill="none" stroke="black" d="M643.774,-362.834C658.254,-352.385 678.132,-338.04 694.113,-326.507"/>
<polygon fill="black" stroke="black" points="696.471,-329.122 702.532,-320.432 692.375,-323.446 696.471,-329.122"/>
</g>
<!-- decode -->
<g id="node7" class="node"><title>decode</title>
<ellipse fill="none" stroke="black" cx="721.145" cy="-234" rx="44.393" ry="18"/>
<text text-anchor="middle" x="721.145" y="-230.3" font-family="Times,serif" font-size="14.00">decode</text>
</g>
<!-- fetch&#45;&gt;decode -->
<g id="edge7" class="edge"><title>fetch&#45;&gt;decode</title>
<path fill="none" stroke="black" d="M639.488,-351.922C650.684,-333.903 666.416,-309.16 681.145,-288 687.733,-278.536 695.279,-268.375 702.03,-259.508"/>
<polygon fill="black" stroke="black" points="636.357,-350.331 634.075,-360.677 642.311,-354.012 636.357,-350.331"/>
<polygon fill="black" stroke="black" points="704.889,-261.532 708.201,-251.468 699.336,-257.27 704.889,-261.532"/>
</g>
<!-- it1 -->
<g id="node8" class="node"><title>it1</title>
<ellipse fill="none" stroke="black" cx="1052.14" cy="-306" rx="27" ry="18"/>
<text text-anchor="middle" x="1052.14" y="-302.3" font-family="Times,serif" font-size="14.00">it1</text>
</g>
<!-- fetch&#45;&gt;it1 -->
<g id="edge8" class="edge"><title>fetch&#45;&gt;it1</title>
<path fill="none" stroke="black" d="M658.376,-375.265C726.583,-371.166 883.835,-358.492 1011.14,-324 1014.52,-323.086 1017.99,-321.961 1021.41,-320.73"/>
<polygon fill="black" stroke="black" points="1022.76,-323.959 1030.8,-317.064 1020.22,-317.438 1022.76,-323.959"/>
</g>
<!-- memW1St&#45;&gt;memW1St -->
<g id="edge9" class="edge"><title>memW1St&#45;&gt;memW1St</title>
<path fill="none" stroke="black" d="M99.6279,-319.17C119.1,-320.796 136.29,-316.406 136.29,-306 136.29,-297.464 124.723,-292.976 109.817,-292.536"/>
<polygon fill="black" stroke="black" points="109.523,-289.043 99.6279,-292.83 109.725,-296.04 109.523,-289.043"/>
</g>
<!-- memW2St -->
<g id="node9" class="node"><title>memW2St</title>
<ellipse fill="none" stroke="black" cx="111.145" cy="-234" rx="59.2899" ry="18"/>
<text text-anchor="middle" x="111.145" y="-230.3" font-family="Times,serif" font-size="14.00">memW2St</text>
</g>
<!-- memW1St&#45;&gt;memW2St -->
<g id="edge10" class="edge"><title>memW1St&#45;&gt;memW2St</title>
<path fill="none" stroke="black" d="M71.7325,-288.055C77.992,-279.629 85.6798,-269.28 92.5984,-259.966"/>
<polygon fill="black" stroke="black" points="95.5193,-261.904 98.6729,-251.789 89.9,-257.729 95.5193,-261.904"/>
</g>
<!-- memR1St&#45;&gt;memR1St -->
<g id="edge13" class="edge"><title>memR1St&#45;&gt;memR1St</title>
<path fill="none" stroke="black" d="M286.544,-319.137C305.351,-320.855 322.04,-316.477 322.04,-306 322.04,-297.488 311.023,-293.001 296.804,-292.54"/>
<polygon fill="black" stroke="black" points="296.429,-289.05 286.544,-292.863 296.65,-296.046 296.429,-289.05"/>
</g>
<!-- regR1St&#45;&gt;regR1St -->
<g id="edge15" class="edge"><title>regR1St&#45;&gt;regR1St</title>
<path fill="none" stroke="black" d="M422.801,-319.025C440.203,-321.029 455.89,-316.688 455.89,-306 455.89,-297.483 445.929,-292.996 433.076,-292.539"/>
<polygon fill="black" stroke="black" points="432.643,-289.054 422.801,-292.975 432.94,-296.048 432.643,-289.054"/>
</g>
<!-- regW1St&#45;&gt;regW1St -->
<g id="edge17" class="edge"><title>regW1St&#45;&gt;regW1St</title>
<path fill="none" stroke="black" d="M562.159,-319.101C580.119,-320.914 596.14,-316.547 596.14,-306 596.14,-297.513 585.766,-293.028 572.356,-292.544"/>
<polygon fill="black" stroke="black" points="572.031,-289.053 562.159,-292.899 572.275,-296.049 572.031,-289.053"/>
</g>
<!-- step&#45;&gt;step -->
<g id="edge18" class="edge"><title>step&#45;&gt;step</title>
<path fill="none" stroke="black" d="M743.113,-318.547C756.731,-321.573 769.692,-317.391 769.692,-306 769.692,-297.546 762.553,-293.063 753.304,-292.55"/>
<polygon fill="black" stroke="black" points="752.765,-289.084 743.113,-293.453 753.383,-296.056 752.765,-289.084"/>
</g>
<!-- step&#45;&gt;decode -->
<g id="edge19" class="edge"><title>step&#45;&gt;decode</title>
<path fill="none" stroke="black" d="M721.145,-287.697C721.145,-279.983 721.145,-270.712 721.145,-262.112"/>
<polygon fill="black" stroke="black" points="724.645,-262.104 721.145,-252.104 717.645,-262.104 724.645,-262.104"/>
</g>
<!-- pcplus1 -->
<g id="node10" class="node"><title>pcplus1</title>
<ellipse fill="none" stroke="black" cx="676.145" cy="-18" rx="47.3916" ry="18"/>
<text text-anchor="middle" x="676.145" y="-14.3" font-family="Times,serif" font-size="14.00">pcplus1</text>
</g>
<!-- decode&#45;&gt;pcplus1 -->
<g id="edge21" class="edge"><title>decode&#45;&gt;pcplus1</title>
<path fill="none" stroke="black" d="M688.437,-221.568C663.968,-210.69 634.774,-191.682 635.145,-163"/>
<path fill="none" stroke="black" d="M635.145,-161C635.683,-119.411 651.977,-73.5582 663.859,-45.5152"/>
<polygon fill="black" stroke="black" points="667.206,-46.5953 667.999,-36.0302 660.791,-43.7948 667.206,-46.5953"/>
</g>
<!-- calc_imm -->
<g id="node11" class="node"><title>calc_imm</title>
<ellipse fill="none" stroke="black" cx="718.145" cy="-90" rx="55.4913" ry="18"/>
<text text-anchor="middle" x="718.145" y="-86.3" font-family="Times,serif" font-size="14.00">calc_imm</text>
</g>
<!-- decode&#45;&gt;calc_imm -->
<g id="edge22" class="edge"><title>decode&#45;&gt;calc_imm</title>
<path fill="none" stroke="black" d="M635.145,-161C635.446,-137.685 654.834,-120.558 674.794,-109.083"/>
<polygon fill="black" stroke="black" points="676.463,-112.159 683.632,-104.358 673.163,-105.986 676.463,-112.159"/>
</g>
<!-- addr -->
<g id="node12" class="node"><title>addr</title>
<ellipse fill="none" stroke="black" cx="824.145" cy="-90" rx="32.4942" ry="18"/>
<text text-anchor="middle" x="824.145" y="-86.3" font-family="Times,serif" font-size="14.00">addr</text>
</g>
<!-- decode&#45;&gt;addr -->
<g id="edge23" class="edge"><title>decode&#45;&gt;addr</title>
<path fill="none" stroke="black" d="M635.145,-161C635.671,-120.354 604.651,-168.674 782.145,-108 784.555,-107.176 787.027,-106.289 789.507,-105.367"/>
<polygon fill="black" stroke="black" points="790.927,-108.571 798.996,-101.705 788.407,-102.04 790.927,-108.571"/>
</g>
<!-- addr_imm -->
<g id="node13" class="node"><title>addr_imm</title>
<ellipse fill="none" stroke="black" cx="721.145" cy="-162" rx="57.6901" ry="18"/>
<text text-anchor="middle" x="721.145" y="-158.3" font-family="Times,serif" font-size="14.00">addr_imm</text>
</g>
<!-- decode&#45;&gt;addr_imm -->
<g id="edge24" class="edge"><title>decode&#45;&gt;addr_imm</title>
<path fill="none" stroke="black" d="M721.145,-215.697C721.145,-207.983 721.145,-198.712 721.145,-190.112"/>
<polygon fill="black" stroke="black" points="724.645,-190.104 721.145,-180.104 717.645,-190.104 724.645,-190.104"/>
</g>
<!-- branch -->
<g id="node14" class="node"><title>branch</title>
<ellipse fill="none" stroke="black" cx="925.145" cy="-162" rx="43.5923" ry="18"/>
<text text-anchor="middle" x="925.145" y="-158.3" font-family="Times,serif" font-size="14.00">branch</text>
</g>
<!-- decode&#45;&gt;branch -->
<g id="edge25" class="edge"><title>decode&#45;&gt;branch</title>
<path fill="none" stroke="black" d="M753.921,-221.753C788.97,-209.727 844.667,-190.615 882.964,-177.474"/>
<polygon fill="black" stroke="black" points="884.464,-180.659 892.787,-174.103 882.192,-174.038 884.464,-180.659"/>
</g>
<!-- reti1 -->
<g id="node15" class="node"><title>reti1</title>
<ellipse fill="none" stroke="black" cx="830.145" cy="-162" rx="33.2948" ry="18"/>
<text text-anchor="middle" x="830.145" y="-158.3" font-family="Times,serif" font-size="14.00">reti1</text>
</g>
<!-- decode&#45;&gt;reti1 -->
<g id="edge26" class="edge"><title>decode&#45;&gt;reti1</title>
<path fill="none" stroke="black" d="M743.73,-218.496C760.191,-207.924 782.65,-193.501 800.546,-182.009"/>
<polygon fill="black" stroke="black" points="802.909,-184.65 809.432,-176.302 799.127,-178.76 802.909,-184.65"/>
</g>
<!-- it2 -->
<g id="node16" class="node"><title>it2</title>
<ellipse fill="none" stroke="black" cx="1052.14" cy="-234" rx="27" ry="18"/>
<text text-anchor="middle" x="1052.14" y="-230.3" font-family="Times,serif" font-size="14.00">it2</text>
</g>
<!-- it1&#45;&gt;it2 -->
<g id="edge32" class="edge"><title>it1&#45;&gt;it2</title>
<path fill="none" stroke="black" d="M1052.14,-287.697C1052.14,-279.983 1052.14,-270.712 1052.14,-262.112"/>
<polygon fill="black" stroke="black" points="1055.64,-262.104 1052.14,-252.104 1048.64,-262.104 1055.64,-262.104"/>
</g>
<!-- memW2St&#45;&gt;fetch -->
<g id="edge11" class="edge"><title>memW2St&#45;&gt;fetch</title>
<path fill="none" stroke="black" d="M122.543,-251.976C138.579,-275.309 167.578,-315.393 183.145,-324 250.616,-361.308 481.75,-372.67 579.704,-375.856"/>
<polygon fill="black" stroke="black" points="579.763,-379.36 589.867,-376.173 579.981,-372.363 579.763,-379.36"/>
</g>
<!-- pcplus1&#45;&gt;fetch -->
<g id="edge27" class="edge"><title>pcplus1&#45;&gt;fetch</title>
<path fill="none" stroke="black" d="M662.922,-35.315C655.328,-45.3784 646.138,-58.8401 640.145,-72 626.428,-102.119 625.402,-111.18 621.145,-144 611.549,-217.969 617.332,-306.25 621.318,-349.859"/>
<polygon fill="black" stroke="black" points="617.847,-350.327 622.283,-359.948 624.815,-349.66 617.847,-350.327"/>
</g>
<!-- calc_imm&#45;&gt;pcplus1 -->
<g id="edge28" class="edge"><title>calc_imm&#45;&gt;pcplus1</title>
<path fill="none" stroke="black" d="M707.978,-72.055C703.025,-63.8006 696.966,-53.7014 691.467,-44.5378"/>
<polygon fill="black" stroke="black" points="694.364,-42.5632 686.218,-35.789 688.362,-46.1647 694.364,-42.5632"/>
</g>
<!-- addr&#45;&gt;pcplus1 -->
<g id="edge29" class="edge"><title>addr&#45;&gt;pcplus1</title>
<path fill="none" stroke="black" d="M800.037,-77.5975C776.663,-66.5426 740.86,-49.6086 713.742,-36.7826"/>
<polygon fill="black" stroke="black" points="715.084,-33.5453 704.547,-32.4336 712.091,-39.8732 715.084,-33.5453"/>
</g>
<!-- addr_imm&#45;&gt;addr -->
<g id="edge30" class="edge"><title>addr_imm&#45;&gt;addr</title>
<path fill="none" stroke="black" d="M744.004,-145.465C759.306,-135.065 779.554,-121.304 795.869,-110.217"/>
<polygon fill="black" stroke="black" points="798.168,-112.886 804.472,-104.37 794.234,-107.096 798.168,-112.886"/>
</g>
<!-- branch&#45;&gt;fetch -->
<g id="edge31" class="edge"><title>branch&#45;&gt;fetch</title>
<path fill="none" stroke="black" d="M954.176,-175.645C973.335,-185.86 995.321,-201.952 997.622,-222.762"/>
<polygon fill="black" stroke="black" points="994.114,-222.848 997.145,-233 1001.11,-223.174 994.114,-222.848"/>
<path fill="none" stroke="black" d="M997.145,-235C1013.9,-305.978 750.908,-356.24 656.893,-371.864"/>
</g>
<!-- reti2 -->
<g id="node20" class="node"><title>reti2</title>
<ellipse fill="none" stroke="black" cx="922.145" cy="-90" rx="33.2948" ry="18"/>
<text text-anchor="middle" x="922.145" y="-86.3" font-family="Times,serif" font-size="14.00">reti2</text>
</g>
<!-- reti1&#45;&gt;reti2 -->
<g id="edge37" class="edge"><title>reti1&#45;&gt;reti2</title>
<path fill="none" stroke="black" d="M848.762,-146.834C862.105,-136.682 880.281,-122.853 895.205,-111.498"/>
<polygon fill="black" stroke="black" points="897.716,-113.985 903.555,-105.144 893.477,-108.414 897.716,-113.985"/>
</g>
<!-- it3 -->
<g id="node17" class="node"><title>it3</title>
<ellipse fill="none" stroke="black" cx="1052.14" cy="-162" rx="27" ry="18"/>
<text text-anchor="middle" x="1052.14" y="-158.3" font-family="Times,serif" font-size="14.00">it3</text>
</g>
<!-- it2&#45;&gt;it3 -->
<g id="edge33" class="edge"><title>it2&#45;&gt;it3</title>
<path fill="none" stroke="black" d="M1052.14,-215.697C1052.14,-207.983 1052.14,-198.712 1052.14,-190.112"/>
<polygon fill="black" stroke="black" points="1055.64,-190.104 1052.14,-180.104 1048.64,-190.104 1055.64,-190.104"/>
</g>
<!-- it4 -->
<g id="node18" class="node"><title>it4</title>
<ellipse fill="none" stroke="black" cx="1052.14" cy="-90" rx="27" ry="18"/>
<text text-anchor="middle" x="1052.14" y="-86.3" font-family="Times,serif" font-size="14.00">it4</text>
</g>
<!-- it3&#45;&gt;it4 -->
<g id="edge34" class="edge"><title>it3&#45;&gt;it4</title>
<path fill="none" stroke="black" d="M1052.14,-143.697C1052.14,-135.983 1052.14,-126.712 1052.14,-118.112"/>
<polygon fill="black" stroke="black" points="1055.64,-118.104 1052.14,-108.104 1048.64,-118.104 1055.64,-118.104"/>
</g>
<!-- it5 -->
<g id="node19" class="node"><title>it5</title>
<ellipse fill="none" stroke="black" cx="1079.14" cy="-18" rx="27" ry="18"/>
<text text-anchor="middle" x="1079.14" y="-14.3" font-family="Times,serif" font-size="14.00">it5</text>
</g>
<!-- it4&#45;&gt;it5 -->
<g id="edge35" class="edge"><title>it4&#45;&gt;it5</title>
<path fill="none" stroke="black" d="M1058.54,-72.411C1061.66,-64.3352 1065.48,-54.4312 1068.98,-45.3547"/>
<polygon fill="black" stroke="black" points="1072.27,-46.5458 1072.6,-35.9562 1065.74,-44.0267 1072.27,-46.5458"/>
</g>
<!-- it5&#45;&gt;fetch -->
<g id="edge36" class="edge"><title>it5&#45;&gt;fetch</title>
<path fill="none" stroke="black" d="M1084.68,-35.8374C1092.84,-62.2129 1107.14,-115.017 1107.14,-161 1107.14,-235 1107.14,-235 1107.14,-235 1107.14,-275.447 1118.09,-296.814 1088.14,-324 1057.39,-351.915 778.643,-369.096 668.566,-374.844"/>
<polygon fill="black" stroke="black" points="668.261,-371.355 658.454,-375.364 668.621,-378.346 668.261,-371.355"/>
</g>
<!-- reti3 -->
<g id="node21" class="node"><title>reti3</title>
<ellipse fill="none" stroke="black" cx="959.145" cy="-18" rx="33.2948" ry="18"/>
<text text-anchor="middle" x="959.145" y="-14.3" font-family="Times,serif" font-size="14.00">reti3</text>
</g>
<!-- reti2&#45;&gt;reti3 -->
<g id="edge38" class="edge"><title>reti2&#45;&gt;reti3</title>
<path fill="none" stroke="black" d="M930.913,-72.411C935.337,-64.0421 940.798,-53.7098 945.735,-44.3698"/>
<polygon fill="black" stroke="black" points="948.86,-45.9465 950.439,-35.4699 942.672,-42.6753 948.86,-45.9465"/>
</g>
<!-- reti3&#45;&gt;fetch -->
<g id="edge39" class="edge"><title>reti3&#45;&gt;fetch</title>
<path fill="none" stroke="black" d="M966.39,-35.6992C980.453,-70.1777 1009.2,-151.967 998.867,-223.047"/>
<polygon fill="black" stroke="black" points="995.401,-222.55 997.145,-233 1002.3,-223.743 995.401,-222.55"/>
</g>
</g>
</svg>
