<?xml version="1.0" encoding="UTF-8" standalone="no"?>
<!DOCTYPE svg PUBLIC "-//W3C//DTD SVG 1.1//EN"
 "http://www.w3.org/Graphics/SVG/1.1/DTD/svg11.dtd">
<!-- Generated by graphviz version 2.38.0 (20140413.2041)
 -->
<!-- Title: %3 Pages: 1 -->
<svg width="1560pt" height="692pt"
 viewBox="0.00 0.00 1560.44 692.00" xmlns="http://www.w3.org/2000/svg" xmlns:xlink="http://www.w3.org/1999/xlink">
<g id="graph0" class="graph" transform="scale(1 1) rotate(0) translate(4 688)">
<title>%3</title>
<polygon fill="white" stroke="none" points="-4,4 -4,-688 1556.44,-688 1556.44,4 -4,4"/>
<!-- fetch -->
<g id="node1" class="node"><title>fetch</title>
<ellipse fill="none" stroke="black" cx="630.145" cy="-666" rx="34.394" ry="18"/>
<text text-anchor="middle" x="630.145" y="-662.3" font-family="Times,serif" font-size="14.00">fetch</text>
</g>
<!-- fetch&#45;&gt;fetch -->
<g id="edge1" class="edge"><title>fetch&#45;&gt;fetch</title>
<path fill="none" stroke="black" d="M654.694,-678.708C669.104,-681.416 682.592,-677.18 682.592,-666 682.592,-657.528 674.846,-653.043 664.823,-652.546"/>
<polygon fill="black" stroke="black" points="664.41,-649.067 654.694,-653.292 664.924,-656.048 664.41,-649.067"/>
</g>
<!-- memW1St -->
<g id="node2" class="node"><title>memW1St</title>
<ellipse fill="none" stroke="black" cx="103.145" cy="-594" rx="59.2899" ry="18"/>
<text text-anchor="middle" x="103.145" y="-590.3" font-family="Times,serif" font-size="14.00">memW1St</text>
</g>
<!-- fetch&#45;&gt;memW1St -->
<g id="edge2" class="edge"><title>fetch&#45;&gt;memW1St</title>
<path fill="none" stroke="black" d="M596.554,-661.838C522.658,-654.69 340.514,-636.022 189.145,-612 179.774,-610.513 169.866,-608.742 160.24,-606.913"/>
<polygon fill="black" stroke="black" points="160.827,-603.462 150.344,-604.997 159.496,-610.334 160.827,-603.462"/>
</g>
<!-- memR1St -->
<g id="node3" class="node"><title>memR1St</title>
<ellipse fill="none" stroke="black" cx="254.145" cy="-594" rx="55.7903" ry="18"/>
<text text-anchor="middle" x="254.145" y="-590.3" font-family="Times,serif" font-size="14.00">memR1St</text>
</g>
<!-- fetch&#45;&gt;memR1St -->
<g id="edge3" class="edge"><title>fetch&#45;&gt;memR1St</title>
<path fill="none" stroke="black" d="M587.945,-657.682C530.957,-647.727 426.263,-629.184 337.145,-612 328.235,-610.282 318.8,-608.405 309.61,-606.545"/>
<polygon fill="black" stroke="black" points="587.563,-661.168 598.016,-659.438 588.766,-654.272 587.563,-661.168"/>
<polygon fill="black" stroke="black" points="310.268,-603.107 299.771,-604.542 308.872,-609.967 310.268,-603.107"/>
</g>
<!-- regR1St -->
<g id="node4" class="node"><title>regR1St</title>
<ellipse fill="none" stroke="black" cx="395.145" cy="-594" rx="48.9926" ry="18"/>
<text text-anchor="middle" x="395.145" y="-590.3" font-family="Times,serif" font-size="14.00">regR1St</text>
</g>
<!-- fetch&#45;&gt;regR1St -->
<g id="edge4" class="edge"><title>fetch&#45;&gt;regR1St</title>
<path fill="none" stroke="black" d="M591.024,-653.347C549.904,-641.098 485.24,-621.837 441.566,-608.827"/>
<polygon fill="black" stroke="black" points="590.274,-656.776 600.857,-656.276 592.272,-650.067 590.274,-656.776"/>
<polygon fill="black" stroke="black" points="442.346,-605.408 431.763,-605.907 440.347,-612.117 442.346,-605.408"/>
</g>
<!-- regW1St -->
<g id="node5" class="node"><title>regW1St</title>
<ellipse fill="none" stroke="black" cx="532.145" cy="-594" rx="51.9908" ry="18"/>
<text text-anchor="middle" x="532.145" y="-590.3" font-family="Times,serif" font-size="14.00">regW1St</text>
</g>
<!-- fetch&#45;&gt;regW1St -->
<g id="edge5" class="edge"><title>fetch&#45;&gt;regW1St</title>
<path fill="none" stroke="black" d="M601.784,-644.742C589.416,-635.908 574.901,-625.54 562.333,-616.563"/>
<polygon fill="black" stroke="black" points="600.141,-647.87 610.313,-650.834 604.21,-642.174 600.141,-647.87"/>
<polygon fill="black" stroke="black" points="564.165,-613.57 553.993,-610.606 560.096,-619.266 564.165,-613.57"/>
</g>
<!-- step -->
<g id="node6" class="node"><title>step</title>
<ellipse fill="none" stroke="black" cx="793.145" cy="-594" rx="30.5947" ry="18"/>
<text text-anchor="middle" x="793.145" y="-590.3" font-family="Times,serif" font-size="14.00">step</text>
</g>
<!-- fetch&#45;&gt;step -->
<g id="edge6" class="edge"><title>fetch&#45;&gt;step</title>
<path fill="none" stroke="black" d="M655.973,-653.908C683.999,-641.872 728.852,-622.611 759.588,-609.411"/>
<polygon fill="black" stroke="black" points="761.224,-612.517 769.032,-605.355 758.462,-606.085 761.224,-612.517"/>
</g>
<!-- waitReadFetch -->
<g id="node7" class="node"><title>waitReadFetch</title>
<ellipse fill="none" stroke="black" cx="668.145" cy="-522" rx="80.6858" ry="18"/>
<text text-anchor="middle" x="668.145" y="-518.3" font-family="Times,serif" font-size="14.00">waitReadFetch</text>
</g>
<!-- fetch&#45;&gt;waitReadFetch -->
<g id="edge7" class="edge"><title>fetch&#45;&gt;waitReadFetch</title>
<path fill="none" stroke="black" d="M634.653,-648.153C641.132,-623.944 653.144,-579.054 660.884,-550.133"/>
<polygon fill="black" stroke="black" points="664.32,-550.833 663.524,-540.268 657.558,-549.023 664.32,-550.833"/>
</g>
<!-- it1 -->
<g id="node8" class="node"><title>it1</title>
<ellipse fill="none" stroke="black" cx="1336.14" cy="-594" rx="27" ry="18"/>
<text text-anchor="middle" x="1336.14" y="-590.3" font-family="Times,serif" font-size="14.00">it1</text>
</g>
<!-- fetch&#45;&gt;it1 -->
<g id="edge8" class="edge"><title>fetch&#45;&gt;it1</title>
<path fill="none" stroke="black" d="M664.642,-664.406C761.482,-662.258 1043.81,-652.693 1274.14,-612 1283.41,-610.363 1293.29,-607.962 1302.38,-605.476"/>
<polygon fill="black" stroke="black" points="1303.58,-608.776 1312.24,-602.671 1301.66,-602.043 1303.58,-608.776"/>
</g>
<!-- memW1St&#45;&gt;memW1St -->
<g id="edge9" class="edge"><title>memW1St&#45;&gt;memW1St</title>
<path fill="none" stroke="black" d="M143.628,-607.17C163.1,-608.796 180.29,-604.406 180.29,-594 180.29,-585.464 168.723,-580.976 153.817,-580.536"/>
<polygon fill="black" stroke="black" points="153.523,-577.043 143.628,-580.83 153.725,-584.04 153.523,-577.043"/>
</g>
<!-- memW2St -->
<g id="node9" class="node"><title>memW2St</title>
<ellipse fill="none" stroke="black" cx="59.1448" cy="-522" rx="59.2899" ry="18"/>
<text text-anchor="middle" x="59.1448" y="-518.3" font-family="Times,serif" font-size="14.00">memW2St</text>
</g>
<!-- memW1St&#45;&gt;memW2St -->
<g id="edge10" class="edge"><title>memW1St&#45;&gt;memW2St</title>
<path fill="none" stroke="black" d="M92.4936,-576.055C87.3052,-567.801 80.9571,-557.701 75.1971,-548.538"/>
<polygon fill="black" stroke="black" points="77.9828,-546.393 69.6978,-539.789 72.0564,-550.118 77.9828,-546.393"/>
</g>
<!-- memR1St&#45;&gt;memR1St -->
<g id="edge13" class="edge"><title>memR1St&#45;&gt;memR1St</title>
<path fill="none" stroke="black" d="M292.544,-607.137C311.351,-608.855 328.04,-604.477 328.04,-594 328.04,-585.488 317.023,-581.001 302.804,-580.54"/>
<polygon fill="black" stroke="black" points="302.429,-577.05 292.544,-580.863 302.65,-584.046 302.429,-577.05"/>
</g>
<!-- regR1St&#45;&gt;regR1St -->
<g id="edge15" class="edge"><title>regR1St&#45;&gt;regR1St</title>
<path fill="none" stroke="black" d="M428.801,-607.025C446.203,-609.029 461.89,-604.688 461.89,-594 461.89,-585.483 451.929,-580.996 439.076,-580.539"/>
<polygon fill="black" stroke="black" points="438.643,-577.054 428.801,-580.975 438.94,-584.048 438.643,-577.054"/>
</g>
<!-- regW1St&#45;&gt;regW1St -->
<g id="edge17" class="edge"><title>regW1St&#45;&gt;regW1St</title>
<path fill="none" stroke="black" d="M568.159,-607.101C586.119,-608.914 602.14,-604.547 602.14,-594 602.14,-585.513 591.766,-581.028 578.356,-580.544"/>
<polygon fill="black" stroke="black" points="578.031,-577.053 568.159,-580.899 578.275,-584.049 578.031,-577.053"/>
</g>
<!-- step&#45;&gt;step -->
<g id="edge18" class="edge"><title>step&#45;&gt;step</title>
<path fill="none" stroke="black" d="M815.113,-606.547C828.731,-609.573 841.692,-605.391 841.692,-594 841.692,-585.546 834.553,-581.063 825.304,-580.55"/>
<polygon fill="black" stroke="black" points="824.765,-577.084 815.113,-581.453 825.383,-584.056 824.765,-577.084"/>
</g>
<!-- waitReadStep -->
<g id="node10" class="node"><title>waitReadStep</title>
<ellipse fill="none" stroke="black" cx="860.145" cy="-522" rx="75.2868" ry="18"/>
<text text-anchor="middle" x="860.145" y="-518.3" font-family="Times,serif" font-size="14.00">waitReadStep</text>
</g>
<!-- step&#45;&gt;waitReadStep -->
<g id="edge19" class="edge"><title>step&#45;&gt;waitReadStep</title>
<path fill="none" stroke="black" d="M807.683,-577.811C816.27,-568.839 827.336,-557.278 837.09,-547.087"/>
<polygon fill="black" stroke="black" points="839.843,-549.272 844.23,-539.628 834.786,-544.432 839.843,-549.272"/>
</g>
<!-- waitReadFetch&#45;&gt;waitReadFetch -->
<g id="edge31" class="edge"><title>waitReadFetch&#45;&gt;waitReadFetch</title>
<path fill="none" stroke="black" d="M722.395,-535.315C746.229,-536.493 766.738,-532.055 766.738,-522 766.738,-513.399 751.729,-508.907 732.469,-508.526"/>
<polygon fill="black" stroke="black" points="732.338,-505.028 722.395,-508.685 732.449,-512.027 732.338,-505.028"/>
</g>
<!-- decode -->
<g id="node11" class="node"><title>decode</title>
<ellipse fill="none" stroke="black" cx="860.145" cy="-450" rx="44.393" ry="18"/>
<text text-anchor="middle" x="860.145" y="-446.3" font-family="Times,serif" font-size="14.00">decode</text>
</g>
<!-- waitReadFetch&#45;&gt;decode -->
<g id="edge30" class="edge"><title>waitReadFetch&#45;&gt;decode</title>
<path fill="none" stroke="black" d="M708.394,-506.326C740.682,-494.554 785.845,-478.088 818.497,-466.184"/>
<polygon fill="black" stroke="black" points="820.005,-469.36 828.201,-462.646 817.607,-462.783 820.005,-469.36"/>
</g>
<!-- waitWriteIt2 -->
<g id="node24" class="node"><title>waitWriteIt2</title>
<ellipse fill="none" stroke="black" cx="1358.14" cy="-522" rx="70.3881" ry="18"/>
<text text-anchor="middle" x="1358.14" y="-518.3" font-family="Times,serif" font-size="14.00">waitWriteIt2</text>
</g>
<!-- it1&#45;&gt;waitWriteIt2 -->
<g id="edge48" class="edge"><title>it1&#45;&gt;waitWriteIt2</title>
<path fill="none" stroke="black" d="M1341.47,-576.055C1343.92,-568.261 1346.89,-558.822 1349.63,-550.079"/>
<polygon fill="black" stroke="black" points="1353.06,-550.865 1352.72,-540.275 1346.38,-548.766 1353.06,-550.865"/>
</g>
<!-- memW2St&#45;&gt;fetch -->
<g id="edge11" class="edge"><title>memW2St&#45;&gt;fetch</title>
<path fill="none" stroke="black" d="M46.3878,-539.937C33.1957,-559.65 16.8887,-592.045 35.1448,-612 72.1204,-652.416 453.336,-662.221 585.4,-664.413"/>
<polygon fill="black" stroke="black" points="585.515,-667.915 595.569,-664.575 585.626,-660.916 585.515,-667.915"/>
</g>
<!-- waitReadStep&#45;&gt;waitReadStep -->
<g id="edge20" class="edge"><title>waitReadStep&#45;&gt;waitReadStep</title>
<path fill="none" stroke="black" d="M911.06,-535.289C933.838,-536.555 953.538,-532.125 953.538,-522 953.538,-513.417 939.383,-508.927 921.197,-508.529"/>
<polygon fill="black" stroke="black" points="920.995,-505.032 911.06,-508.711 921.121,-512.031 920.995,-505.032"/>
</g>
<!-- waitReadStep&#45;&gt;decode -->
<g id="edge21" class="edge"><title>waitReadStep&#45;&gt;decode</title>
<path fill="none" stroke="black" d="M860.145,-503.697C860.145,-495.983 860.145,-486.712 860.145,-478.112"/>
<polygon fill="black" stroke="black" points="863.645,-478.104 860.145,-468.104 856.645,-478.104 863.645,-478.104"/>
</g>
<!-- decode&#45;&gt;fetch -->
<g id="edge22" class="edge"><title>decode&#45;&gt;fetch</title>
<path fill="none" stroke="black" d="M903.429,-454.28C997.286,-461.914 1214.3,-482.573 1254.04,-513.044"/>
<polygon fill="black" stroke="black" points="1251.28,-515.195 1260.14,-521 1256.84,-510.935 1251.28,-515.195"/>
<path fill="none" stroke="black" d="M1260.14,-523C1331.71,-624.82 805.384,-656.832 664.318,-663.539"/>
</g>
<!-- pcplus1 -->
<g id="node12" class="node"><title>pcplus1</title>
<ellipse fill="none" stroke="black" cx="601.145" cy="-90" rx="47.3916" ry="18"/>
<text text-anchor="middle" x="601.145" y="-86.3" font-family="Times,serif" font-size="14.00">pcplus1</text>
</g>
<!-- decode&#45;&gt;pcplus1 -->
<g id="edge23" class="edge"><title>decode&#45;&gt;pcplus1</title>
<path fill="none" stroke="black" d="M879.671,-433.692C891.176,-423.888 905.349,-410.346 915.145,-396 958.851,-331.995 989.926,-312.113 982.145,-235"/>
<path fill="none" stroke="black" d="M982.145,-233C974.587,-196.85 945.788,-204.491 918.145,-180 900.732,-164.572 900.854,-154.599 880.145,-144 809.449,-107.817 717.26,-96.1843 658.614,-92.5325"/>
<polygon fill="black" stroke="black" points="658.607,-89.0266 648.425,-91.9575 658.212,-96.0155 658.607,-89.0266"/>
</g>
<!-- calc_imm -->
<g id="node13" class="node"><title>calc_imm</title>
<ellipse fill="none" stroke="black" cx="982.145" cy="-162" rx="55.4913" ry="18"/>
<text text-anchor="middle" x="982.145" y="-158.3" font-family="Times,serif" font-size="14.00">calc_imm</text>
</g>
<!-- decode&#45;&gt;calc_imm -->
<g id="edge24" class="edge"><title>decode&#45;&gt;calc_imm</title>
<path fill="none" stroke="black" d="M982.145,-233C980.725,-218.925 980.596,-203.177 980.878,-190.187"/>
<polygon fill="black" stroke="black" points="984.381,-190.125 981.192,-180.022 977.385,-189.909 984.381,-190.125"/>
</g>
<!-- addr -->
<g id="node14" class="node"><title>addr</title>
<ellipse fill="none" stroke="black" cx="564.145" cy="-306" rx="32.4942" ry="18"/>
<text text-anchor="middle" x="564.145" y="-302.3" font-family="Times,serif" font-size="14.00">addr</text>
</g>
<!-- decode&#45;&gt;addr -->
<g id="edge25" class="edge"><title>decode&#45;&gt;addr</title>
<path fill="none" stroke="black" d="M818.318,-443.707C777.221,-437.15 713.776,-423.322 665.145,-396 644.862,-384.605 644.498,-375.495 627.145,-360 615.048,-349.199 601.299,-337.561 589.738,-327.95"/>
<polygon fill="black" stroke="black" points="591.698,-325.029 581.762,-321.351 587.236,-330.422 591.698,-325.029"/>
</g>
<!-- addr_imm -->
<g id="node15" class="node"><title>addr_imm</title>
<ellipse fill="none" stroke="black" cx="560.145" cy="-378" rx="57.6901" ry="18"/>
<text text-anchor="middle" x="560.145" y="-374.3" font-family="Times,serif" font-size="14.00">addr_imm</text>
</g>
<!-- decode&#45;&gt;addr_imm -->
<g id="edge26" class="edge"><title>decode&#45;&gt;addr_imm</title>
<path fill="none" stroke="black" d="M822.615,-440.318C777.42,-429.853 699.211,-411.713 632.145,-396 626.457,-394.667 620.517,-393.272 614.595,-391.877"/>
<polygon fill="black" stroke="black" points="615.228,-388.431 604.692,-389.544 613.622,-395.244 615.228,-388.431"/>
</g>
<!-- waitReadTestAndSet -->
<g id="node16" class="node"><title>waitReadTestAndSet</title>
<ellipse fill="none" stroke="black" cx="781.145" cy="-378" rx="107.482" ry="18"/>
<text text-anchor="middle" x="781.145" y="-374.3" font-family="Times,serif" font-size="14.00">waitReadTestAndSet</text>
</g>
<!-- decode&#45;&gt;waitReadTestAndSet -->
<g id="edge27" class="edge"><title>decode&#45;&gt;waitReadTestAndSet</title>
<path fill="none" stroke="black" d="M842.612,-433.465C832.418,-424.432 819.363,-412.864 807.907,-402.714"/>
<polygon fill="black" stroke="black" points="810.093,-399.974 800.287,-395.962 805.451,-405.213 810.093,-399.974"/>
</g>
<!-- branch -->
<g id="node17" class="node"><title>branch</title>
<ellipse fill="none" stroke="black" cx="1188.14" cy="-378" rx="43.5923" ry="18"/>
<text text-anchor="middle" x="1188.14" y="-374.3" font-family="Times,serif" font-size="14.00">branch</text>
</g>
<!-- decode&#45;&gt;branch -->
<g id="edge28" class="edge"><title>decode&#45;&gt;branch</title>
<path fill="none" stroke="black" d="M901.021,-442.697C955.033,-434.011 1052.95,-417.023 1135.14,-396 1138.57,-395.123 1142.1,-394.15 1145.64,-393.125"/>
<polygon fill="black" stroke="black" points="1146.97,-396.38 1155.53,-390.139 1144.94,-389.679 1146.97,-396.38"/>
</g>
<!-- waitReadReti -->
<g id="node18" class="node"><title>waitReadReti</title>
<ellipse fill="none" stroke="black" cx="1035.14" cy="-378" rx="73.387" ry="18"/>
<text text-anchor="middle" x="1035.14" y="-374.3" font-family="Times,serif" font-size="14.00">waitReadReti</text>
</g>
<!-- decode&#45;&gt;waitReadReti -->
<g id="edge29" class="edge"><title>decode&#45;&gt;waitReadReti</title>
<path fill="none" stroke="black" d="M890.627,-436.807C917.784,-425.944 957.918,-409.891 989.006,-397.456"/>
<polygon fill="black" stroke="black" points="990.354,-400.686 998.339,-393.722 987.754,-394.187 990.354,-400.686"/>
</g>
<!-- pcplus1&#45;&gt;fetch -->
<g id="edge32" class="edge"><title>pcplus1&#45;&gt;fetch</title>
<path fill="none" stroke="black" d="M553.39,-90.6554C505.439,-92.8138 432.116,-103.278 385.145,-144 347.592,-176.557 340.117,-204.955 356.145,-252 408.262,-404.98 474.114,-416.32 578.145,-540 592.116,-556.61 601.196,-556.709 611.145,-576 621.073,-595.251 625.816,-619.407 628.081,-637.694"/>
<polygon fill="black" stroke="black" points="624.607,-638.129 629.148,-647.701 631.568,-637.386 624.607,-638.129"/>
</g>
<!-- calc_imm&#45;&gt;pcplus1 -->
<g id="edge33" class="edge"><title>calc_imm&#45;&gt;pcplus1</title>
<path fill="none" stroke="black" d="M940.295,-150.168C931.362,-148.002 921.963,-145.833 913.145,-144 822.825,-125.229 716.769,-108.282 654.472,-98.8407"/>
<polygon fill="black" stroke="black" points="654.895,-95.3649 644.485,-97.3347 653.851,-102.287 654.895,-95.3649"/>
</g>
<!-- waitReadAddr -->
<g id="node19" class="node"><title>waitReadAddr</title>
<ellipse fill="none" stroke="black" cx="480.145" cy="-162" rx="77.1866" ry="18"/>
<text text-anchor="middle" x="480.145" y="-158.3" font-family="Times,serif" font-size="14.00">waitReadAddr</text>
</g>
<!-- addr&#45;&gt;waitReadAddr -->
<g id="edge34" class="edge"><title>addr&#45;&gt;waitReadAddr</title>
<path fill="none" stroke="black" d="M565.115,-287.995C565.408,-269.086 563.48,-238.278 550.145,-216 542.585,-203.371 530.769,-192.728 518.983,-184.37"/>
<polygon fill="black" stroke="black" points="520.729,-181.328 510.467,-178.693 516.846,-187.152 520.729,-181.328"/>
</g>
<!-- waitWriteAddr -->
<g id="node20" class="node"><title>waitWriteAddr</title>
<ellipse fill="none" stroke="black" cx="444.145" cy="-234" rx="79.0865" ry="18"/>
<text text-anchor="middle" x="444.145" y="-230.3" font-family="Times,serif" font-size="14.00">waitWriteAddr</text>
</g>
<!-- addr&#45;&gt;waitWriteAddr -->
<g id="edge35" class="edge"><title>addr&#45;&gt;waitWriteAddr</title>
<path fill="none" stroke="black" d="M542.414,-292.324C525.116,-282.233 500.537,-267.895 480.287,-256.083"/>
<polygon fill="black" stroke="black" points="482.021,-253.043 471.62,-251.027 478.494,-259.089 482.021,-253.043"/>
</g>
<!-- addr_imm&#45;&gt;addr -->
<g id="edge36" class="edge"><title>addr_imm&#45;&gt;addr</title>
<path fill="none" stroke="black" d="M561.134,-359.697C561.574,-351.983 562.104,-342.712 562.595,-334.112"/>
<polygon fill="black" stroke="black" points="566.091,-334.288 563.167,-324.104 559.102,-333.888 566.091,-334.288"/>
</g>
<!-- waitReadTestAndSet&#45;&gt;waitReadTestAndSet -->
<g id="edge41" class="edge"><title>waitReadTestAndSet&#45;&gt;waitReadTestAndSet</title>
<path fill="none" stroke="black" d="M852.902,-391.409C881.947,-392.208 906.385,-387.738 906.385,-378 906.385,-369.441 887.507,-364.952 863.216,-364.532"/>
<polygon fill="black" stroke="black" points="862.882,-361.034 852.902,-364.591 862.922,-368.034 862.882,-361.034"/>
</g>
<!-- testAndSetRead -->
<g id="node21" class="node"><title>testAndSetRead</title>
<ellipse fill="none" stroke="black" cx="752.145" cy="-306" rx="85.5853" ry="18"/>
<text text-anchor="middle" x="752.145" y="-302.3" font-family="Times,serif" font-size="14.00">testAndSetRead</text>
</g>
<!-- waitReadTestAndSet&#45;&gt;testAndSetRead -->
<g id="edge42" class="edge"><title>waitReadTestAndSet&#45;&gt;testAndSetRead</title>
<path fill="none" stroke="black" d="M773.976,-359.697C770.71,-351.813 766.771,-342.304 763.143,-333.546"/>
<polygon fill="black" stroke="black" points="766.292,-332.003 759.231,-324.104 759.825,-334.683 766.292,-332.003"/>
</g>
<!-- branch&#45;&gt;fetch -->
<g id="edge47" class="edge"><title>branch&#45;&gt;fetch</title>
<path fill="none" stroke="black" d="M1213.36,-392.944C1229.27,-403.35 1248.37,-419.234 1256.98,-439.424"/>
<polygon fill="black" stroke="black" points="1253.68,-440.605 1260.14,-449 1260.33,-438.407 1253.68,-440.605"/>
<path fill="none" stroke="black" d="M1260.14,-451C1267.29,-481.279 1253.04,-490.712 1260.14,-521"/>
</g>
<!-- waitReadReti&#45;&gt;waitReadReti -->
<g id="edge60" class="edge"><title>waitReadReti&#45;&gt;waitReadReti</title>
<path fill="none" stroke="black" d="M1085,-391.289C1107.3,-392.555 1126.59,-388.125 1126.59,-378 1126.59,-369.457 1112.86,-364.969 1095.17,-364.535"/>
<polygon fill="black" stroke="black" points="1094.93,-361.038 1085,-364.711 1095.06,-368.037 1094.93,-361.038"/>
</g>
<!-- reti1 -->
<g id="node32" class="node"><title>reti1</title>
<ellipse fill="none" stroke="black" cx="1085.14" cy="-306" rx="33.2948" ry="18"/>
<text text-anchor="middle" x="1085.14" y="-302.3" font-family="Times,serif" font-size="14.00">reti1</text>
</g>
<!-- waitReadReti&#45;&gt;reti1 -->
<g id="edge61" class="edge"><title>waitReadReti&#45;&gt;reti1</title>
<path fill="none" stroke="black" d="M1047.25,-360.055C1053.36,-351.505 1060.88,-340.975 1067.6,-331.556"/>
<polygon fill="black" stroke="black" points="1070.53,-333.479 1073.5,-323.307 1064.84,-329.41 1070.53,-333.479"/>
</g>
<!-- waitReadAddr&#45;&gt;pcplus1 -->
<g id="edge37" class="edge"><title>waitReadAddr&#45;&gt;pcplus1</title>
<path fill="none" stroke="black" d="M507.602,-145.116C525.338,-134.855 548.541,-121.432 567.4,-110.522"/>
<polygon fill="black" stroke="black" points="569.363,-113.43 576.266,-105.393 565.857,-107.371 569.363,-113.43"/>
</g>
<!-- waitReadAddr&#45;&gt;waitReadAddr -->
<g id="edge38" class="edge"><title>waitReadAddr&#45;&gt;waitReadAddr</title>
<path fill="none" stroke="black" d="M532.607,-175.315C555.655,-176.493 575.488,-172.055 575.488,-162 575.488,-153.477 561.237,-148.99 542.858,-148.538"/>
<polygon fill="black" stroke="black" points="542.555,-145.042 532.607,-148.685 542.656,-152.041 542.555,-145.042"/>
</g>
<!-- waitWriteAddr&#45;&gt;pcplus1 -->
<g id="edge39" class="edge"><title>waitWriteAddr&#45;&gt;pcplus1</title>
<path fill="none" stroke="black" d="M423.262,-216.351C402.484,-197.763 376.105,-167.24 394.145,-144 412.668,-120.137 491.402,-105.186 546.24,-97.4653"/>
<polygon fill="black" stroke="black" points="546.747,-100.929 556.181,-96.1074 545.799,-93.9931 546.747,-100.929"/>
</g>
<!-- waitWriteAddr&#45;&gt;waitWriteAddr -->
<g id="edge40" class="edge"><title>waitWriteAddr&#45;&gt;waitWriteAddr</title>
<path fill="none" stroke="black" d="M497.679,-247.315C521.199,-248.493 541.438,-244.055 541.438,-234 541.438,-225.438 526.761,-220.948 507.881,-220.532"/>
<polygon fill="black" stroke="black" points="507.626,-217.035 497.679,-220.685 507.731,-224.034 507.626,-217.035"/>
</g>
<!-- testAndSetFlag -->
<g id="node22" class="node"><title>testAndSetFlag</title>
<ellipse fill="none" stroke="black" cx="737.145" cy="-234" rx="83.3857" ry="18"/>
<text text-anchor="middle" x="737.145" y="-230.3" font-family="Times,serif" font-size="14.00">testAndSetFlag</text>
</g>
<!-- testAndSetRead&#45;&gt;testAndSetFlag -->
<g id="edge43" class="edge"><title>testAndSetRead&#45;&gt;testAndSetFlag</title>
<path fill="none" stroke="black" d="M748.437,-287.697C746.784,-279.983 744.797,-270.712 742.955,-262.112"/>
<polygon fill="black" stroke="black" points="746.328,-261.149 740.81,-252.104 739.483,-262.616 746.328,-261.149"/>
</g>
<!-- waitWriteTestAndSetFlag -->
<g id="node23" class="node"><title>waitWriteTestAndSetFlag</title>
<ellipse fill="none" stroke="black" cx="723.145" cy="-162" rx="129.977" ry="18"/>
<text text-anchor="middle" x="723.145" y="-158.3" font-family="Times,serif" font-size="14.00">waitWriteTestAndSetFlag</text>
</g>
<!-- testAndSetFlag&#45;&gt;waitWriteTestAndSetFlag -->
<g id="edge44" class="edge"><title>testAndSetFlag&#45;&gt;waitWriteTestAndSetFlag</title>
<path fill="none" stroke="black" d="M733.684,-215.697C732.141,-207.983 730.287,-198.712 728.567,-190.112"/>
<polygon fill="black" stroke="black" points="731.959,-189.224 726.566,-180.104 725.095,-190.597 731.959,-189.224"/>
</g>
<!-- waitWriteTestAndSetFlag&#45;&gt;pcplus1 -->
<g id="edge45" class="edge"><title>waitWriteTestAndSetFlag&#45;&gt;pcplus1</title>
<path fill="none" stroke="black" d="M694.232,-144.411C676.43,-134.196 653.529,-121.057 634.897,-110.366"/>
<polygon fill="black" stroke="black" points="636.55,-107.279 626.135,-105.338 633.066,-113.351 636.55,-107.279"/>
</g>
<!-- waitWriteTestAndSetFlag&#45;&gt;waitWriteTestAndSetFlag -->
<g id="edge46" class="edge"><title>waitWriteTestAndSetFlag&#45;&gt;waitWriteTestAndSetFlag</title>
<path fill="none" stroke="black" d="M809.789,-175.447C843.289,-176.045 871.133,-171.562 871.133,-162 871.133,-153.409 848.658,-148.918 819.798,-148.528"/>
<polygon fill="black" stroke="black" points="819.78,-145.028 809.789,-148.553 819.798,-152.028 819.78,-145.028"/>
</g>
<!-- waitWriteIt2&#45;&gt;waitWriteIt2 -->
<g id="edge49" class="edge"><title>waitWriteIt2&#45;&gt;waitWriteIt2</title>
<path fill="none" stroke="black" d="M1405.78,-535.262C1427.48,-536.616 1446.34,-532.195 1446.34,-522 1446.34,-513.477 1433.16,-508.99 1416.16,-508.538"/>
<polygon fill="black" stroke="black" points="1415.71,-505.046 1405.78,-508.738 1415.84,-512.045 1415.71,-505.046"/>
</g>
<!-- it2 -->
<g id="node25" class="node"><title>it2</title>
<ellipse fill="none" stroke="black" cx="1358.14" cy="-450" rx="27" ry="18"/>
<text text-anchor="middle" x="1358.14" y="-446.3" font-family="Times,serif" font-size="14.00">it2</text>
</g>
<!-- waitWriteIt2&#45;&gt;it2 -->
<g id="edge50" class="edge"><title>waitWriteIt2&#45;&gt;it2</title>
<path fill="none" stroke="black" d="M1358.14,-503.697C1358.14,-495.983 1358.14,-486.712 1358.14,-478.112"/>
<polygon fill="black" stroke="black" points="1361.64,-478.104 1358.14,-468.104 1354.64,-478.104 1361.64,-478.104"/>
</g>
<!-- it3 -->
<g id="node26" class="node"><title>it3</title>
<ellipse fill="none" stroke="black" cx="1358.14" cy="-378" rx="27" ry="18"/>
<text text-anchor="middle" x="1358.14" y="-374.3" font-family="Times,serif" font-size="14.00">it3</text>
</g>
<!-- it2&#45;&gt;it3 -->
<g id="edge51" class="edge"><title>it2&#45;&gt;it3</title>
<path fill="none" stroke="black" d="M1358.14,-431.697C1358.14,-423.983 1358.14,-414.712 1358.14,-406.112"/>
<polygon fill="black" stroke="black" points="1361.64,-406.104 1358.14,-396.104 1354.64,-406.104 1361.64,-406.104"/>
</g>
<!-- waitWriteIt4 -->
<g id="node27" class="node"><title>waitWriteIt4</title>
<ellipse fill="none" stroke="black" cx="1358.14" cy="-306" rx="70.3881" ry="18"/>
<text text-anchor="middle" x="1358.14" y="-302.3" font-family="Times,serif" font-size="14.00">waitWriteIt4</text>
</g>
<!-- it3&#45;&gt;waitWriteIt4 -->
<g id="edge52" class="edge"><title>it3&#45;&gt;waitWriteIt4</title>
<path fill="none" stroke="black" d="M1358.14,-359.697C1358.14,-351.983 1358.14,-342.712 1358.14,-334.112"/>
<polygon fill="black" stroke="black" points="1361.64,-334.104 1358.14,-324.104 1354.64,-334.104 1361.64,-334.104"/>
</g>
<!-- waitWriteIt4&#45;&gt;waitWriteIt4 -->
<g id="edge53" class="edge"><title>waitWriteIt4&#45;&gt;waitWriteIt4</title>
<path fill="none" stroke="black" d="M1405.78,-319.262C1427.48,-320.616 1446.34,-316.195 1446.34,-306 1446.34,-297.477 1433.16,-292.99 1416.16,-292.538"/>
<polygon fill="black" stroke="black" points="1415.71,-289.046 1405.78,-292.738 1415.84,-296.045 1415.71,-289.046"/>
</g>
<!-- it4 -->
<g id="node28" class="node"><title>it4</title>
<ellipse fill="none" stroke="black" cx="1388.14" cy="-234" rx="27" ry="18"/>
<text text-anchor="middle" x="1388.14" y="-230.3" font-family="Times,serif" font-size="14.00">it4</text>
</g>
<!-- waitWriteIt4&#45;&gt;it4 -->
<g id="edge54" class="edge"><title>waitWriteIt4&#45;&gt;it4</title>
<path fill="none" stroke="black" d="M1365.41,-288.055C1368.87,-279.973 1373.09,-270.121 1376.95,-261.112"/>
<polygon fill="black" stroke="black" points="1380.23,-262.359 1380.95,-251.789 1373.79,-259.602 1380.23,-262.359"/>
</g>
<!-- it5 -->
<g id="node29" class="node"><title>it5</title>
<ellipse fill="none" stroke="black" cx="1403.14" cy="-162" rx="27" ry="18"/>
<text text-anchor="middle" x="1403.14" y="-158.3" font-family="Times,serif" font-size="14.00">it5</text>
</g>
<!-- it4&#45;&gt;it5 -->
<g id="edge55" class="edge"><title>it4&#45;&gt;it5</title>
<path fill="none" stroke="black" d="M1391.78,-216.055C1393.45,-208.261 1395.47,-198.822 1397.34,-190.079"/>
<polygon fill="black" stroke="black" points="1400.77,-190.787 1399.44,-180.275 1393.93,-189.32 1400.77,-190.787"/>
</g>
<!-- it6 -->
<g id="node30" class="node"><title>it6</title>
<ellipse fill="none" stroke="black" cx="1411.14" cy="-90" rx="27" ry="18"/>
<text text-anchor="middle" x="1411.14" y="-86.3" font-family="Times,serif" font-size="14.00">it6</text>
</g>
<!-- it5&#45;&gt;it6 -->
<g id="edge56" class="edge"><title>it5&#45;&gt;it6</title>
<path fill="none" stroke="black" d="M1405.12,-143.697C1406,-135.983 1407.06,-126.712 1408.05,-118.112"/>
<polygon fill="black" stroke="black" points="1411.53,-118.437 1409.19,-108.104 1404.58,-117.642 1411.53,-118.437"/>
</g>
<!-- waitReadHandler -->
<g id="node31" class="node"><title>waitReadHandler</title>
<ellipse fill="none" stroke="black" cx="1442.14" cy="-18" rx="92.0841" ry="18"/>
<text text-anchor="middle" x="1442.14" y="-14.3" font-family="Times,serif" font-size="14.00">waitReadHandler</text>
</g>
<!-- it6&#45;&gt;waitReadHandler -->
<g id="edge57" class="edge"><title>it6&#45;&gt;waitReadHandler</title>
<path fill="none" stroke="black" d="M1418.49,-72.411C1422.07,-64.3352 1426.45,-54.4312 1430.47,-45.3547"/>
<polygon fill="black" stroke="black" points="1433.79,-46.517 1434.64,-35.9562 1427.39,-43.6825 1433.79,-46.517"/>
</g>
<!-- waitReadHandler&#45;&gt;fetch -->
<g id="edge58" class="edge"><title>waitReadHandler&#45;&gt;fetch</title>
<path fill="none" stroke="black" d="M1448.62,-36.2066C1457.97,-62.6388 1474.14,-115.007 1474.14,-161 1474.14,-523 1474.14,-523 1474.14,-523 1474.14,-583.164 1427.72,-588.963 1372.14,-612 1245.11,-664.652 815.984,-666.382 675.256,-665.475"/>
<polygon fill="black" stroke="black" points="674.88,-661.972 664.855,-665.399 674.829,-668.972 674.88,-661.972"/>
</g>
<!-- waitReadHandler&#45;&gt;waitReadHandler -->
<g id="edge59" class="edge"><title>waitReadHandler&#45;&gt;waitReadHandler</title>
<path fill="none" stroke="black" d="M1504.23,-31.3713C1530.29,-32.336 1552.44,-27.8789 1552.44,-18 1552.44,-9.43314 1535.78,-4.94356 1514.36,-4.53127"/>
<polygon fill="black" stroke="black" points="1514.19,-1.03263 1504.23,-4.62875 1514.26,-8.0323 1514.19,-1.03263"/>
</g>
<!-- reti2 -->
<g id="node33" class="node"><title>reti2</title>
<ellipse fill="none" stroke="black" cx="1110.14" cy="-234" rx="33.2948" ry="18"/>
<text text-anchor="middle" x="1110.14" y="-230.3" font-family="Times,serif" font-size="14.00">reti2</text>
</g>
<!-- reti1&#45;&gt;reti2 -->
<g id="edge62" class="edge"><title>reti1&#45;&gt;reti2</title>
<path fill="none" stroke="black" d="M1091.2,-288.055C1094.05,-280.059 1097.53,-270.331 1100.72,-261.4"/>
<polygon fill="black" stroke="black" points="1104.08,-262.384 1104.15,-251.789 1097.49,-260.029 1104.08,-262.384"/>
</g>
<!-- waitReadReti2 -->
<g id="node34" class="node"><title>waitReadReti2</title>
<ellipse fill="none" stroke="black" cx="1135.14" cy="-162" rx="79.0865" ry="18"/>
<text text-anchor="middle" x="1135.14" y="-158.3" font-family="Times,serif" font-size="14.00">waitReadReti2</text>
</g>
<!-- reti2&#45;&gt;waitReadReti2 -->
<g id="edge63" class="edge"><title>reti2&#45;&gt;waitReadReti2</title>
<path fill="none" stroke="black" d="M1116.2,-216.055C1119.01,-208.176 1122.42,-198.617 1125.58,-189.794"/>
<polygon fill="black" stroke="black" points="1128.91,-190.87 1128.98,-180.275 1122.32,-188.516 1128.91,-190.87"/>
</g>
<!-- waitReadReti2&#45;&gt;waitReadReti2 -->
<g id="edge64" class="edge"><title>waitReadReti2&#45;&gt;waitReadReti2</title>
<path fill="none" stroke="black" d="M1188.68,-175.315C1212.2,-176.493 1232.44,-172.055 1232.44,-162 1232.44,-153.438 1217.76,-148.948 1198.88,-148.532"/>
<polygon fill="black" stroke="black" points="1198.63,-145.035 1188.68,-148.685 1198.73,-152.034 1198.63,-145.035"/>
</g>
<!-- reti3 -->
<g id="node35" class="node"><title>reti3</title>
<ellipse fill="none" stroke="black" cx="1197.14" cy="-90" rx="33.2948" ry="18"/>
<text text-anchor="middle" x="1197.14" y="-86.3" font-family="Times,serif" font-size="14.00">reti3</text>
</g>
<!-- waitReadReti2&#45;&gt;reti3 -->
<g id="edge65" class="edge"><title>waitReadReti2&#45;&gt;reti3</title>
<path fill="none" stroke="black" d="M1150.15,-144.055C1157.99,-135.204 1167.71,-124.231 1176.27,-114.566"/>
<polygon fill="black" stroke="black" points="1179.11,-116.636 1183.12,-106.829 1173.87,-111.995 1179.11,-116.636"/>
</g>
<!-- reti3&#45;&gt;fetch -->
<g id="edge66" class="edge"><title>reti3&#45;&gt;fetch</title>
<path fill="none" stroke="black" d="M1213.26,-106.261C1222.77,-116.149 1234.26,-129.797 1241.14,-144 1258.8,-180.392 1260.14,-192.553 1260.14,-233 1260.14,-307 1260.14,-307 1260.14,-307 1260.14,-366.536 1247.24,-385.452 1257.95,-438.97"/>
<polygon fill="black" stroke="black" points="1254.59,-439.978 1260.14,-449 1261.43,-438.483 1254.59,-439.978"/>
</g>
</g>
</svg>
